<svg width="8" height="6" viewBox="0 0 8 6" fill="none" xmlns="http://www.w3.org/2000/svg">
<path d="M0.588867 1.09766L0.862305 0.837891C0.907878 0.783203 0.967122 0.742188 1.04004 0.714844C1.11296 0.678385 1.19043 0.660156 1.27246 0.660156C1.35449 0.660156 1.42741 0.678385 1.49121 0.714844C1.56413 0.742188 1.62793 0.783203 1.68262 0.837891L3.99316 3.14844L6.31738 0.837891C6.37207 0.783203 6.43132 0.742188 6.49512 0.714844C6.56803 0.678385 6.64551 0.660156 6.72754 0.660156C6.80957 0.660156 6.88704 0.678385 6.95996 0.714844C7.03288 0.742188 7.09668 0.783203 7.15137 0.837891L7.39746 1.09766C7.45215 1.15234 7.49316 1.21615 7.52051 1.28906C7.55697 1.35286 7.5752 1.42578 7.5752 1.50781C7.5752 1.58984 7.55697 1.66732 7.52051 1.74023C7.49316 1.81315 7.45215 1.8724 7.39746 1.91797L4.41699 4.91211C4.3623 4.9668 4.2985 5.01237 4.22559 5.04883C4.15267 5.07617 4.07975 5.08984 4.00684 5.08984C3.9248 5.08984 3.84733 5.07617 3.77441 5.04883C3.7015 5.01237 3.6377 4.9668 3.58301 4.91211L0.588867 1.91797C0.543294 1.8724 0.502279 1.81315 0.46582 1.74023C0.438477 1.66732 0.424805 1.58984 0.424805 1.50781C0.424805 1.42578 0.438477 1.35286 0.46582 1.28906C0.502279 1.21615 0.543294 1.15234 0.588867 1.09766Z" fill="black"/>
</svg>
